name pl06_filtered_grf.mot
datacolumns 37
datarows 12
range 1.624500 1.630000
endheader
time	1_ground_force_vx	1_ground_force_vy	1_ground_force_vz	1_ground_force_px	1_ground_force_py	1_ground_force_pz	1_ground_torque_x	1_ground_torque_y	1_ground_torque_z	2_ground_force_vx	2_ground_force_vy	2_ground_force_vz	2_ground_force_px	2_ground_force_py	2_ground_force_pz	2_ground_torque_x	2_ground_torque_y	2_ground_torque_z	3_ground_force_vx	3_ground_force_vy	3_ground_force_vz	3_ground_force_px	3_ground_force_py	3_ground_force_pz	3_ground_torque_x	3_ground_torque_y	3_ground_torque_z	4_ground_force_vx	4_ground_force_vy	4_ground_force_vz	4_ground_force_px	4_ground_force_py	4_ground_force_pz	4_ground_torque_x	4_ground_torque_y	4_ground_torque_z
            1.624500	          -17.635275	          298.128627	           -0.733926	            0.132675	            0.000000	            0.217264	           -0.334330	            5.651930	           -0.013914	           18.748228	          355.598211	           -0.414661	           -0.127166	            0.000000	            0.224414	            0.029368	            0.557026	           -0.000650	           22.179415	            0.723950	            0.392425	            0.375573	            1.311068	            1.913591	           -0.106411	           -0.003473	           -0.001883	          -18.553091	           -0.535727	            1.902441	           -0.265222	            1.310046	            1.924496	            0.018821	            0.000543	           -0.001930
            1.625000	          -17.760772	          297.904448	           -0.910578	            0.132705	            0.000000	            0.217297	           -0.336286	            5.640580	           -0.017241	           18.775646	          355.037347	           -0.681955	           -0.127155	            0.000000	            0.224429	            0.029702	            0.561648	           -0.001079	           22.196850	            0.715698	            0.403688	            0.375571	            1.311071	            1.913588	           -0.106656	           -0.003439	           -0.001940	          -18.567804	           -0.539615	            1.909995	           -0.265225	            1.310045	            1.924495	            0.018835	            0.000547	           -0.001937
            1.625500	          -17.884387	          297.677692	           -1.089975	            0.132736	            0.000000	            0.217330	           -0.338221	            5.629547	           -0.020613	           18.801680	          354.467398	           -0.948509	           -0.127144	            0.000000	            0.224445	            0.030030	            0.566161	           -0.001515	           22.215515	            0.708404	            0.415349	            0.375568	            1.311072	            1.913584	           -0.106933	           -0.003410	           -0.001999	          -18.583281	           -0.543555	            1.917147	           -0.265228	            1.310045	            1.924494	            0.018814	            0.000550	           -0.001941
            1.626000	          -18.006080	          297.448294	           -1.272214	            0.132768	            0.000000	            0.217364	           -0.340137	            5.618827	           -0.024032	           18.826276	          353.888536	           -1.214284	           -0.127134	            0.000000	            0.224462	            0.030352	            0.570541	           -0.001958	           22.235306	            0.702148	            0.426977	            0.375565	            1.311073	            1.913580	           -0.107238	           -0.003386	           -0.002059	          -18.599380	           -0.547524	            1.923794	           -0.265231	            1.310044	            1.924493	            0.018760	            0.000552	           -0.001940
            1.626500	          -18.125821	          297.216221	           -1.457370	            0.132800	            0.000000	            0.217399	           -0.342031	            5.608417	           -0.027500	           18.849383	          353.300954	           -1.479234	           -0.127123	            0.000000	            0.224480	            0.030665	            0.574763	           -0.002406	           22.256101	            0.696993	            0.438504	            0.375562	            1.311074	            1.913577	           -0.107569	           -0.003369	           -0.002119	          -18.615952	           -0.551491	            1.929831	           -0.265234	            1.310044	            1.924492	            0.018672	            0.000553	           -0.001936
            1.627000	          -18.243583	          296.981474	           -1.645495	            0.132833	            0.000000	            0.217434	           -0.343905	            5.598313	           -0.031019	           18.870961	          352.704860	           -1.743314	           -0.127113	            0.000000	            0.224498	            0.030968	            0.578804	           -0.002861	           22.277768	            0.692994	            0.449868	            0.375558	            1.311075	            1.913573	           -0.107924	           -0.003357	           -0.002179	          -18.632843	           -0.555424	            1.935153	           -0.265237	            1.310043	            1.924491	            0.018553	            0.000553	           -0.001927
            1.627500	          -18.359349	          296.744085	           -1.836614	            0.132868	            0.000000	            0.217471	           -0.345757	            5.588511	           -0.034589	           18.890979	          352.100479	           -2.006468	           -0.127103	            0.000000	            0.224517	            0.031260	            0.582640	           -0.003320	           22.300166	            0.690192	            0.461013	            0.375555	            1.311077	            1.913569	           -0.108298	           -0.003352	           -0.002239	          -18.649894	           -0.559286	            1.939660	           -0.265240	            1.310043	            1.924490	            0.018405	            0.000552	           -0.001914
            1.628000	          -18.473102	          296.504117	           -2.030728	            0.132903	            0.000000	            0.217509	           -0.347589	            5.579004	           -0.038210	           18.909414	          351.488043	           -2.268640	           -0.127092	            0.000000	            0.224537	            0.031539	            0.586252	           -0.003784	           22.323137	            0.688610	            0.472269	            0.375551	            1.311075	            1.913564	           -0.108689	           -0.003353	           -0.002299	          -18.666952	           -0.563040	            1.943188	           -0.265243	            1.310043	            1.924489	            0.018228	            0.000550	           -0.001898
            1.628500	          -18.584833	          296.261664	           -2.227812	            0.132940	            0.000000	            0.217548	           -0.349399	            5.569788	           -0.041883	           18.926254	          350.867799	           -2.529765	           -0.127082	            0.000000	            0.224557	            0.031805	            0.589621	           -0.004251	           22.346531	            0.688270	            0.483220	            0.375547	            1.311074	            1.913560	           -0.109091	           -0.003360	           -0.002359	          -18.683848	           -0.566642	            1.945721	           -0.265247	            1.310043	            1.924488	            0.018026	            0.000547	           -0.001877
            1.629000	          -18.694536	          296.016850	           -2.427818	            0.132977	            0.000000	            0.217589	           -0.351188	            5.560855	           -0.045608	           18.941499	          350.239998	           -2.789771	           -0.127072	            0.000000	            0.224579	            0.032056	            0.592730	           -0.004721	           22.370182	            0.689175	            0.493832	            0.375543	            1.311073	            1.913555	           -0.109501	           -0.003373	           -0.002417	          -18.700426	           -0.570050	            1.947182	           -0.265250	            1.310043	            1.924488	            0.017799	            0.000543	           -0.001853
            1.629500	          -18.802207	          295.769827	           -2.630671	            0.133016	            0.000000	            0.217631	           -0.352956	            5.552201	           -0.049383	           18.955159	          349.604897	           -3.048580	           -0.127062	            0.000000	            0.224601	            0.032291	            0.595566	           -0.005193	           22.393915	            0.691319	            0.504077	            0.375539	            1.311072	            1.913550	           -0.109914	           -0.003393	           -0.002474	          -18.716533	           -0.573219	            1.947509	           -0.265253	            1.310043	            1.924487	            0.017551	            0.000538	           -0.001826
            1.630000	          -18.907844	          295.520772	           -2.836274	            0.133055	            0.000000	            0.217675	           -0.354701	            5.543819	           -0.053207	           18.967253	          348.962756	           -3.306109	           -0.127053	            0.000000	            0.224623	            0.032510	            0.598118	           -0.005667	           22.417553	            0.694684	            0.513935	            0.375535	            1.311071	            1.913546	           -0.110324	           -0.003419	           -0.002529	          -18.732024	           -0.576107	            1.946649	           -0.265256	            1.310043	            1.924486	            0.017282	            0.000531	           -0.001796
